<?xml version="1.0" encoding="utf-8"?>
<!-- Generator: Adobe Illustrator 24.2.0, SVG Export Plug-In . SVG Version: 6.00 Build 0)  -->
<svg version="1.1" id="Layer_1" xmlns="http://www.w3.org/2000/svg" xmlns:xlink="http://www.w3.org/1999/xlink" x="0px" y="0px"
	 viewBox="0 0 720 504" style="enable-background:new 0 0 720 504;" xml:space="preserve">
<style type="text/css">
	.st0{fill-rule:evenodd;clip-rule:evenodd;fill:#939598;}
	.st1{fill-rule:evenodd;clip-rule:evenodd;fill:#F58220;}
	.st2{fill:#FFFFFF;}
</style>
<path class="st0" d="M540,319.39v-3.13h-8.26v-3.78h8.09v-3.13h-8.09v-3.53H540v-3.13h-11.82v16.7H540z M525.4,319.39v-3.13h-8.26
	v-3.78h8.09v-3.13h-8.09v-3.53h8.26v-3.13h-11.82v16.7H525.4z M504.4,319.69c3.43,0,5.88-1.83,5.88-5.78v-11.22h-3.56v11.17
	c0,1.63-1.03,2.68-2.6,2.68c-1.15,0-2-0.58-2.65-1.2l-1.55,2.73C501.12,319.24,502.72,319.69,504.4,319.69z M481.46,319.39v-13.57
	h4.86v-3.13H473v3.13h4.88v13.57H481.46z M471.25,319.39v-3.13h-8.26v-3.78h8.09v-3.13h-8.09v-3.53h8.26v-3.13h-11.82v16.7H471.25z
	 M456.65,319.39v-3.13h-8.26v-3.78h8.09v-3.13h-8.09v-3.53h8.26v-3.13h-11.82v16.7H456.65z M441.53,319.39v-16.7h-3.56v10.49
	l-7.74-10.49h-3.66v16.7h3.56V308.5l7.96,10.89H441.53z M413.94,319.39v-8.56c0.55-0.98,2.13-1.93,3.3-1.93
	c0.28,0,0.5,0.03,0.73,0.05v-1.93c-1.65,0-3.05,0.95-4.03,2.2v-1.93h-1.88v12.09H413.94z M403.03,318.02c-2.58,0-4.01-2.2-4.01-4.68
	c0-2.45,1.43-4.66,4.01-4.66c2.58,0,4.01,2.2,4.01,4.66C407.03,315.81,405.6,318.02,403.03,318.02z M403.03,319.69
	c3.68,0,5.98-2.85,5.98-6.36c0-3.51-2.3-6.33-5.98-6.33c-3.68,0-5.98,2.83-5.98,6.33C397.04,316.84,399.34,319.69,403.03,319.69z
	 M393.04,319.39v-10.44h2.45v-1.65h-2.45v-0.93c0-1.55,0.68-2.38,1.93-2.38c0.6,0,1.08,0.23,1.48,0.58l0.78-1.2
	c-0.75-0.7-1.58-0.93-2.55-0.93c-2.13,0-3.51,1.45-3.51,3.93v0.93h-2v1.65h2v10.44H393.04z M380.37,319.39v-8.49
	c0-2.63-1.33-3.91-3.83-3.91c-1.83,0-3.48,1.03-4.33,2.05v-1.75h-1.88v12.09h1.88v-8.84c0.73-0.98,2.1-1.88,3.58-1.88
	c1.63,0,2.73,0.65,2.73,2.8v7.91H380.37z M361.29,318.02c-2.58,0-4.01-2.2-4.01-4.68c0-2.45,1.43-4.66,4.01-4.66
	c2.58,0,4.01,2.2,4.01,4.66C365.29,315.81,363.87,318.02,361.29,318.02z M361.29,319.69c3.68,0,5.98-2.85,5.98-6.36
	c0-3.51-2.3-6.33-5.98-6.33c-3.68,0-5.98,2.83-5.98,6.33C355.31,316.84,357.61,319.69,361.29,319.69z M352.25,319.39V307.3h-1.88
	v12.09H352.25z M351.32,305.57c0.7,0,1.25-0.55,1.25-1.25c0-0.7-0.55-1.28-1.25-1.28c-0.7,0-1.28,0.58-1.28,1.28
	C350.05,305.02,350.62,305.57,351.32,305.57z M346.09,319.69c1.08,0,1.75-0.33,2.23-0.78l-0.55-1.43c-0.25,0.28-0.73,0.53-1.28,0.53
	c-0.8,0-1.2-0.65-1.2-1.55v-7.51h2.45v-1.65h-2.45V304h-1.9v3.3h-2v1.65h2v7.91C343.39,318.67,344.29,319.69,346.09,319.69z
	 M334.05,318.34c-1.78,0-3-1.1-3-2.65c0-1.53,1.23-2.63,3-2.63c1.3,0,2.58,0.5,3.3,1.48v2.3
	C336.63,317.84,335.35,318.34,334.05,318.34z M339.23,319.39v-8.31c0-2.93-2.1-4.08-4.68-4.08c-1.98,0-3.53,0.65-4.83,2l0.88,1.3
	c1.08-1.18,2.25-1.68,3.71-1.68c1.75,0,3.05,0.93,3.05,2.53v2.18c-0.98-1.1-2.35-1.63-4.01-1.63c-2.05,0-4.21,1.25-4.21,3.98
	c0,2.63,2.18,4.01,4.21,4.01c1.63,0,3.03-0.58,4.01-1.68v1.38H339.23z M325.51,319.69c1.08,0,1.75-0.33,2.23-0.78l-0.55-1.43
	c-0.25,0.28-0.73,0.53-1.28,0.53c-0.8,0-1.2-0.65-1.2-1.55v-7.51h2.45v-1.65h-2.45V304h-1.9v3.3h-2v1.65h2v7.91
	C322.81,318.67,323.71,319.69,325.51,319.69z M318.65,319.39v-8.49c0-2.63-1.33-3.91-3.83-3.91c-1.83,0-3.48,1.03-4.33,2.05v-1.75
	h-1.88v12.09h1.88v-8.84c0.73-0.98,2.1-1.88,3.58-1.88c1.63,0,2.73,0.65,2.73,2.8v7.91H318.65z M303.73,312.56h-7.94
	c0.1-1.83,1.38-4.01,3.96-4.01C302.5,308.55,303.71,310.78,303.73,312.56z M300,319.69c1.95,0,3.58-0.68,4.81-1.88l-0.9-1.23
	c-0.98,1-2.35,1.55-3.76,1.55c-2.6,0-4.18-1.9-4.33-4.18h9.76v-0.48c0-3.63-2.15-6.48-5.81-6.48c-3.46,0-5.96,2.83-5.96,6.33
	C293.82,317.12,296.39,319.69,300,319.69z M290.76,319.39V307.3h-1.88v12.09H290.76z M289.84,305.57c0.7,0,1.25-0.55,1.25-1.25
	c0-0.7-0.55-1.28-1.25-1.28c-0.7,0-1.28,0.58-1.28,1.28C288.56,305.02,289.13,305.57,289.84,305.57z M282.5,319.39v-8.56
	c0.55-0.98,2.13-1.93,3.3-1.93c0.28,0,0.5,0.03,0.73,0.05v-1.93c-1.65,0-3.05,0.95-4.03,2.2v-1.93h-1.88v12.09H282.5z
	 M269.15,317.84c-3.76,0-6.13-2.9-6.13-6.78c0-3.91,2.38-6.78,6.13-6.78c3.73,0,6.16,2.88,6.16,6.78
	C275.31,314.94,272.89,317.84,269.15,317.84z M269.15,319.69c4.93,0,8.31-3.71,8.31-8.64c0-4.93-3.38-8.64-8.31-8.64
	c-4.93,0-8.29,3.71-8.29,8.64C260.87,315.99,264.22,319.69,269.15,319.69z M251.23,319.39v-16.7h-1.88v16.7H251.23z M240.39,318.34
	c-1.78,0-3-1.1-3-2.65c0-1.53,1.23-2.63,3-2.63c1.3,0,2.58,0.5,3.3,1.48v2.3C242.97,317.84,241.69,318.34,240.39,318.34z
	 M245.57,319.39v-8.31c0-2.93-2.1-4.08-4.68-4.08c-1.98,0-3.53,0.65-4.83,2l0.88,1.3c1.08-1.18,2.25-1.68,3.71-1.68
	c1.75,0,3.05,0.93,3.05,2.53v2.18c-0.98-1.1-2.35-1.63-4.01-1.63c-2.05,0-4.21,1.25-4.21,3.98c0,2.63,2.18,4.01,4.21,4.01
	c1.63,0,3.03-0.58,4.01-1.68v1.38H245.57z M232.38,319.39V307.3h-1.88v12.09H232.38z M231.45,305.57c0.7,0,1.25-0.55,1.25-1.25
	c0-0.7-0.55-1.28-1.25-1.28c-0.7,0-1.28,0.58-1.28,1.28C230.17,305.02,230.75,305.57,231.45,305.57z M226.22,319.69
	c1.08,0,1.75-0.33,2.23-0.78l-0.55-1.43c-0.25,0.28-0.73,0.53-1.28,0.53c-0.8,0-1.2-0.65-1.2-1.55v-7.51h2.45v-1.65h-2.45V304h-1.9
	v3.3h-2v1.65h2v7.91C223.51,318.67,224.41,319.69,226.22,319.69z M214.18,318.34c-1.78,0-3-1.1-3-2.65c0-1.53,1.23-2.63,3-2.63
	c1.3,0,2.58,0.5,3.3,1.48v2.3C216.75,317.84,215.48,318.34,214.18,318.34z M219.36,319.39v-8.31c0-2.93-2.1-4.08-4.68-4.08
	c-1.98,0-3.53,0.65-4.83,2l0.88,1.3c1.08-1.18,2.25-1.68,3.71-1.68c1.75,0,3.05,0.93,3.05,2.53v2.18c-0.98-1.1-2.35-1.63-4.01-1.63
	c-2.05,0-4.21,1.25-4.21,3.98c0,2.63,2.18,4.01,4.21,4.01c1.63,0,3.03-0.58,4.01-1.68v1.38H219.36z M201.08,318.02
	c-1.48,0-2.95-0.9-3.61-1.95v-5.46c0.65-1.05,2.13-1.93,3.61-1.93c2.43,0,3.88,1.98,3.88,4.66
	C204.96,316.01,203.51,318.02,201.08,318.02z M201.56,319.69c3.18,0,5.38-2.45,5.38-6.36c0-3.93-2.2-6.33-5.38-6.33
	c-1.7,0-3.2,0.88-4.08,2.1v-1.8h-1.88V324h1.88v-6.43C198.48,318.89,199.9,319.69,201.56,319.69z M186.41,319.69
	c4.51,0,6.16-2.5,6.16-4.91c0-6.23-9.89-4.08-9.89-7.84c0-1.58,1.45-2.65,3.43-2.65c1.83,0,3.58,0.6,4.83,2l1.25-1.53
	c-1.4-1.48-3.38-2.35-5.91-2.35c-3.3,0-5.76,1.9-5.76,4.66c0,5.96,9.89,3.56,9.89,7.86c0,1.3-0.95,2.9-3.93,2.9
	c-2.35,0-4.16-1.15-5.23-2.4l-1.25,1.6C181.38,318.59,183.53,319.69,186.41,319.69z"/>
<rect x="492.81" y="302.7" class="st1" width="2.13" height="17.18"/>
<path class="st1" d="M447.34,226.43c-9.94,0-16.32-7.6-16.32-17.34c0-9.83,6.39-17.34,16.32-17.34c9.94,0,16.32,7.5,16.32,17.34
	C463.66,218.83,457.27,226.43,447.34,226.43 M447.34,238.19c17.64,0,30.01-12.37,30.01-29.1c0-16.83-12.37-29.1-30.01-29.1
	c-17.74,0-29.91,12.27-29.91,29.1C417.43,225.82,429.6,238.19,447.34,238.19z M393.2,236.98c11.46,0,17.44-6.79,17.44-15.21
	c0-6.69-4.56-12.17-10.75-13.58c5.27-1.42,9.53-6.08,9.53-12.67c0-7.5-5.78-14.29-17.13-14.29h-31.12v11.67h13.38v-0.01h15.61
	c3.45,0,5.68,1.93,5.68,4.97c0,2.84-2.23,4.87-5.68,4.87h-11.14v0h-17.86v11.72h17.86v0.04h11.64c3.95,0,6.29,2.43,6.29,5.47
	c0,3.35-2.53,5.37-6.29,5.37h-11.64v0.01h-17.86v11.65H393.2z"/>
<path class="st2" d="M534.11,262.54c-0.26-2.42-1.15-4.22-2.67-5.4c-1.52-1.18-3.53-1.77-6.01-1.77c-2.26,0-4.13,0.47-5.62,1.4
	c-1.49,0.93-2.23,2.46-2.23,4.59c0,1.9,0.77,3.17,2.31,3.8c1.54,0.64,4.53,1.46,8.98,2.45c4.45,1,7.42,2.31,8.91,3.95
	c1.49,1.64,2.23,3.68,2.23,6.13c0,3.44-1.37,6.04-4.12,7.8c-2.75,1.77-5.94,2.65-9.57,2.65c-4.22,0-7.69-1.06-10.4-3.18
	c-2.72-2.12-4.07-5.26-4.07-9.43h4.42c0,2.86,0.97,5.02,2.92,6.49c1.95,1.46,4.38,2.2,7.29,2.2c2.52,0,4.63-0.48,6.33-1.45
	c1.7-0.97,2.55-2.61,2.55-4.93c0-2.49-1.1-4.09-3.31-4.81c-2.21-0.72-5.2-1.49-8.98-2.31c-3.78-0.82-6.41-1.97-7.9-3.46
	c-1.49-1.49-2.23-3.35-2.23-5.57c0-3.37,1.23-5.92,3.71-7.66c2.47-1.73,5.47-2.6,9.01-2.6c3.8,0,6.9,0.93,9.3,2.8
	c2.4,1.86,3.61,4.63,3.61,8.29H534.11z M459.85,252.29h24.2v3.93h-19.53v11.14h18.21v3.93h-18.21v12.12h19.68v3.93h-24.34V252.29z
	 M424.32,262.54c-0.26-2.42-1.15-4.22-2.67-5.4c-1.52-1.18-3.53-1.77-6.01-1.77c-2.26,0-4.13,0.47-5.62,1.4
	c-1.49,0.93-2.23,2.46-2.23,4.59c0,1.9,0.77,3.17,2.31,3.8c1.54,0.64,4.53,1.46,8.98,2.45c4.45,1,7.42,2.31,8.91,3.95
	c1.49,1.64,2.23,3.68,2.23,6.13c0,3.44-1.37,6.04-4.12,7.8c-2.75,1.77-5.94,2.65-9.57,2.65c-4.22,0-7.69-1.06-10.4-3.18
	c-2.72-2.12-4.07-5.26-4.07-9.43h4.42c0,2.86,0.97,5.02,2.92,6.49c1.95,1.46,4.38,2.2,7.29,2.2c2.52,0,4.63-0.48,6.33-1.45
	c1.7-0.97,2.55-2.61,2.55-4.93c0-2.49-1.1-4.09-3.31-4.81c-2.21-0.72-5.2-1.49-8.98-2.31c-3.78-0.82-6.41-1.97-7.9-3.46
	c-1.49-1.49-2.23-3.35-2.23-5.57c0-3.37,1.24-5.92,3.71-7.66c2.47-1.73,5.47-2.6,9.01-2.6c3.8,0,6.9,0.93,9.3,2.8
	c2.4,1.86,3.61,4.63,3.61,8.29H424.32z M368.52,262.54c-0.26-2.42-1.15-4.22-2.67-5.4c-1.52-1.18-3.53-1.77-6.01-1.77
	c-2.26,0-4.13,0.47-5.62,1.4c-1.49,0.93-2.23,2.46-2.23,4.59c0,1.9,0.77,3.17,2.31,3.8c1.54,0.64,4.53,1.46,8.98,2.45
	c4.45,1,7.42,2.31,8.91,3.95c1.49,1.64,2.23,3.68,2.23,6.13c0,3.44-1.37,6.04-4.12,7.8c-2.75,1.77-5.94,2.65-9.57,2.65
	c-4.22,0-7.69-1.06-10.4-3.18c-2.72-2.12-4.07-5.26-4.07-9.43h4.42c0,2.86,0.97,5.02,2.92,6.49c1.95,1.46,4.38,2.2,7.29,2.2
	c2.52,0,4.63-0.48,6.33-1.45c1.7-0.97,2.55-2.61,2.55-4.93c0-2.49-1.1-4.09-3.31-4.81c-2.21-0.72-5.2-1.49-8.98-2.31
	c-3.78-0.82-6.41-1.97-7.9-3.46c-1.49-1.49-2.23-3.35-2.23-5.57c0-3.37,1.24-5.92,3.71-7.66c2.47-1.73,5.47-2.6,9.01-2.6
	c3.8,0,6.9,0.93,9.3,2.8c2.4,1.86,3.61,4.63,3.61,8.29H368.52z M298.46,272.85h11.89l-5.84-16.3L298.46,272.85z M301.96,252.29h5.15
	l13.69,35.04h-5.22l-3.75-10.55h-14.85l-3.86,10.55h-4.85L301.96,252.29z M241.15,252.29h4.66v31.12h18.55v3.93h-23.21V252.29z
	 M540,236.98v-55.76h-13.38v33.66l-25.24-33.66h-14.4v55.76h13.38V202l25.95,34.98H540z M210.41,238.19
	c11.96,0,19.87-6.49,24.13-14.29l-11.25-5.27c-2.23,4.56-7.2,7.81-12.88,7.81c-9.73,0-16.83-7.5-16.83-17.34
	c0-9.94,7.1-17.34,16.83-17.34c5.68,0,10.54,3.24,12.88,7.81l11.15-5.37c-4.16-7.7-12.06-14.19-24.03-14.19
	c-17.44,0-30.41,11.86-30.41,29.1C180,226.23,192.98,238.19,210.41,238.19z M274.59,216.09h-16.52l8.31-21.29L274.59,216.09z
	 M258.16,181.22l-22.61,55.76h15.11l3.55-9.23h24.23l3.65,9.23h15l-22.61-55.76H258.16z M329.54,206.16h-13.18v-13.28h13.18
	c4.77,0,7.6,2.74,7.6,6.59C337.14,203.42,334.4,206.16,329.54,206.16z M351.23,236.98l-13.28-20.48
	c6.39-1.32,12.77-6.89,12.77-17.03c0-10.04-7.2-18.25-19.57-18.25h-28.18v55.76h13.38v-19.16h8.52l11.05,19.16H351.23z
	 M206.36,262.54c-0.49-2.32-1.61-4.1-3.36-5.32c-1.75-1.23-3.9-1.84-6.45-1.84c-3.96,0-6.93,1.36-8.91,4.07
	c-1.98,2.72-2.97,6.09-2.97,10.11c0,4.32,0.99,7.84,2.97,10.58c1.98,2.73,4.96,4.1,8.96,4.1c3.04,0,5.49-0.92,7.34-2.76
	c1.85-1.83,2.77-4.2,2.77-7.11h4.66c-0.46,4.34-2,7.72-4.61,10.15c-2.62,2.43-6.13,3.64-10.55,3.64c-5.24,0-9.24-1.7-12.02-5.1
	s-4.17-7.79-4.17-13.15c0-5.33,1.46-9.74,4.37-13.23c2.91-3.48,6.99-5.23,12.22-5.23c3.8,0,7.02,0.97,9.67,2.9
	c2.65,1.92,4.24,4.65,4.76,8.2H206.36z"/>
</svg>
